<?xml version="1.0" ?><!DOCTYPE svg  PUBLIC '-//W3C//DTD SVG 1.1//EN'  'http://www.w3.org/Graphics/SVG/1.1/DTD/svg11.dtd'><svg enable-background="new 0 0 64 64" id="Layer_1" version="1.1" viewBox="0 0 64 64" xml:space="preserve" xmlns="http://www.w3.org/2000/svg" xmlns:xlink="http://www.w3.org/1999/xlink"><g><path d="M46.803,48.329C46.802,48.329,46.802,48.329,46.803,48.329c-0.554-0.001-1.001-0.449-1-1.001l0.001-0.37   c0.003-2.146,0.015-9.944-0.001-11.685c-0.005-0.552,0.438-1.004,0.991-1.009c0.003,0,0.006,0,0.009,0c0.549,0,0.995,0.441,1,0.991   c0.016,1.743,0.004,9.557,0.001,11.705l-0.001,0.369C47.802,47.882,47.354,48.329,46.803,48.329z"/></g><g><path d="M45.793,48.39c-2.146,0-4.653-0.722-6.248-2.79c-0.703-0.909-1.024-2.257-1.105-2.648c-0.289-1.387-0.253-3.651,0.307-5.04   c0.26-0.645,0.657-1.274,1.216-1.927c1.7-1.986,4.276-1.968,6.35-1.958l0.499,0.002c0.553,0,1,0.447,1,1s-0.447,1-1,1l-0.512-0.002   c-1.822-0.008-3.721-0.022-4.817,1.259c-0.415,0.484-0.703,0.934-0.88,1.374c-0.394,0.976-0.424,2.83-0.204,3.884   c0.151,0.729,0.445,1.466,0.73,1.834c1.375,1.781,3.843,2.169,5.553,1.96c0.537-0.078,1.047,0.321,1.114,0.87   c0.068,0.548-0.321,1.047-0.87,1.114C46.565,48.366,46.186,48.39,45.793,48.39z"/></g><g><path d="M47.519,46.081c-0.412,0-0.799-0.257-0.943-0.668c-0.184-0.521,0.09-1.092,0.611-1.275   c0.513-0.181,1.003-0.366,1.352-0.645c0.729-0.584,0.883-1.504,0.883-2.174c0-2.176-1.091-2.652-2.041-2.823   c-0.543-0.099-0.904-0.618-0.807-1.162c0.099-0.543,0.609-0.904,1.162-0.807c2.377,0.429,3.686,2.131,3.686,4.792   c0,1.566-0.58,2.894-1.634,3.736c-0.594,0.474-1.282,0.738-1.937,0.969C47.741,46.063,47.629,46.081,47.519,46.081z"/></g><g><path d="M17.197,48.419c-0.552,0-0.999-0.446-1-0.999l-0.001-0.369c-0.003-2.148-0.015-9.962,0.001-11.705   c0.005-0.55,0.452-0.991,1-0.991c0.003,0,0.006,0,0.009,0c0.553,0.005,0.996,0.457,0.991,1.009   c-0.016,1.74-0.004,9.539-0.001,11.685l0.001,0.37C18.198,47.97,17.751,48.418,17.197,48.419L17.197,48.419z"/></g><g><path d="M18.207,48.479c-0.393,0-0.772-0.023-1.132-0.068c-0.549-0.067-0.938-0.566-0.87-1.114c0.067-0.548,0.58-0.943,1.114-0.87   c1.711,0.209,4.179-0.177,5.552-1.958c0.286-0.37,0.58-1.107,0.732-1.836c0.219-1.054,0.188-2.908-0.205-3.884   c-0.177-0.44-0.465-0.89-0.88-1.374c-1.097-1.281-2.997-1.268-4.817-1.259l-0.512,0.002c-0.553,0-1-0.447-1-1s0.447-1,1-1   l0.499-0.002c2.074-0.01,4.649-0.028,6.35,1.958c0.559,0.652,0.956,1.282,1.216,1.927c0.56,1.389,0.596,3.653,0.308,5.04   c-0.082,0.392-0.403,1.739-1.107,2.65C22.86,47.758,20.353,48.479,18.207,48.479z"/></g><g><path d="M16.481,46.171c-0.11,0-0.223-0.019-0.332-0.057c-0.654-0.23-1.343-0.495-1.936-0.969c-1.055-0.843-1.635-2.17-1.635-3.736   c0-2.661,1.309-4.363,3.686-4.792c0.552-0.099,1.063,0.264,1.162,0.807c0.098,0.544-0.264,1.063-0.807,1.162   c-0.95,0.171-2.041,0.647-2.041,2.823c0,0.67,0.153,1.59,0.884,2.174c0.348,0.278,0.838,0.464,1.351,0.645   c0.521,0.184,0.795,0.755,0.611,1.275C17.28,45.914,16.894,46.171,16.481,46.171z"/></g><g><path d="M46.811,36.647c-0.004,0-0.008,0-0.013,0c-0.552-0.007-0.994-0.46-0.987-1.013c0.021-1.72-0.039-3.588-0.181-5.553   c-0.405-5.577-3.389-9.577-8.628-11.568c-4.902-1.862-10.855-1.067-14.473,1.932c-0.866,0.718-2.025,1.855-2.684,2.894   c-1.623,2.563-1.64,8.852-1.646,11.537l-0.002,0.483c-0.003,0.551-0.45,0.995-1,0.995c-0.002,0-0.003,0-0.005,0   c-0.553-0.003-0.998-0.453-0.995-1.005l0.002-0.479c0.008-3.1,0.025-9.551,1.957-12.602c0.985-1.555,2.619-2.967,3.096-3.362   c4.146-3.438,10.915-4.37,16.461-2.262c6.019,2.287,9.446,6.884,9.911,13.293c0.146,2.021,0.209,3.946,0.187,5.723   C47.804,36.208,47.357,36.647,46.811,36.647z"/></g></svg>